<?xml version="1.0" encoding="UTF-8" standalone="no"?>
<svg
   xmlns:dc="http://purl.org/dc/elements/1.1/"
   xmlns:cc="http://creativecommons.org/ns#"
   xmlns:rdf="http://www.w3.org/1999/02/22-rdf-syntax-ns#"
   xmlns:svg="http://www.w3.org/2000/svg"
   xmlns="http://www.w3.org/2000/svg"
   xmlns:xlink="http://www.w3.org/1999/xlink"
   xmlns:sodipodi="http://sodipodi.sourceforge.net/DTD/sodipodi-0.dtd"
   xmlns:inkscape="http://www.inkscape.org/namespaces/inkscape"
   viewBox="0 0 503.40043 561.335"
   width="3020.4026"
   height="3368.01"
   id="svg2"
   version="1.1"
   inkscape:version="0.48.2 r9819"
   sodipodi:docname="India_geo_stub.svg">
  <metadata
     id="metadata40">
    <rdf:RDF>
      <cc:Work
         rdf:about="">
        <dc:format>image/svg+xml</dc:format>
        <dc:type
           rdf:resource="http://purl.org/dc/dcmitype/StillImage" />
      </cc:Work>
    </rdf:RDF>
  </metadata>
  <defs
     id="defs38" />
  <sodipodi:namedview
     pagecolor="#ffffff"
     bordercolor="#666666"
     borderopacity="1"
     objecttolerance="10"
     gridtolerance="10"
     guidetolerance="10"
     inkscape:pageopacity="0"
     inkscape:pageshadow="2"
     inkscape:window-width="1400"
     inkscape:window-height="988"
     id="namedview36"
     showgrid="false"
     inkscape:zoom="0.29"
     inkscape:cx="1021.0473"
     inkscape:cy="2113.1525"
     inkscape:window-x="-8"
     inkscape:window-y="-8"
     inkscape:window-maximized="1"
     inkscape:current-layer="svg2"
     fit-margin-top="0"
     fit-margin-left="0"
     fit-margin-right="0"
     fit-margin-bottom="0" />
  <path
     style="fill:#ffffff;stroke:#ff9933;stroke-width:1.75000000000000000;stroke-miterlimit:4;stroke-opacity:1;stroke-dasharray:none"
     d="m 43.367447,186.19593 c -0.005,0.007 -6.595433,2.69674 -7.992633,3.78341 -1.4201,1.10453 -4.571967,4.02355 -5.203117,4.8125 -0.63115,0.78895 0.0783,6.94062 1.656233,8.7552 1.5779,1.81458 1.732134,0.16177 4.098967,1.73959 2.366834,1.5779 2.524517,0.94791 4.8125,0.94791 2.287917,0 1.18075,0.2346 1.338534,1.8125 0.15785,1.5779 0.0065,2.68011 -1.807284,5.04688 -1.814516,2.36685 -0.558066,5.05345 -0.479166,5.44792 0.0789,0.39443 0.235733,1.02506 0.630216,1.65625 0.394467,0.63113 0.946167,0.78975 1.656234,2.05208 0.710016,1.2623 1.26545,1.97298 1.817716,2.60417 0.552234,0.63113 4.0278,0.46966 5.447917,-0.16147 1.42005,-0.63112 1.739183,0.24002 0.713533,1.26563 -1.0256,1.02564 -0.8796,3.3864 -0.406233,4.88542 0.473333,1.49902 3.3125,5.21472 3.3125,6.16145 0,0.94675 0.31885,3.94083 1.265617,5.20313 0.9467,1.2623 1.342983,1.41939 1.421883,2.20834 0.07888,0.78895 -0.636616,0.9414 -1.583333,2.67708 -0.946734,1.73568 0.561017,1.6559 2.84895,2.76042 2.287933,1.10453 -0.0757,0.63098 -2.994783,0.55208 -2.919101,-0.0789 -0.877017,0.24215 -1.744801,1.58333 -0.867866,1.34119 -0.783616,0.63022 -2.677083,0.63022 -1.893467,0 -1.500767,-0.31638 -1.421883,-2.0521 0.0789,-1.73563 -0.391934,-1.97528 -0.78645,-2.36978 -0.394434,-0.39445 -0.07858,0.004 -1.104167,0.16145 -1.025617,0.15788 -1.421883,1.03126 -1.421883,1.03126 0,0 -0.157334,0.0751 -1.104167,0.39062 -0.946717,0.31558 -2.288033,0.0766 -4.2604,0.23438 -1.972367,0.15782 -0.870983,0.79402 -1.817717,2.6875 -0.946733,1.89344 -1.412867,0.0789 -3.9375,0 -2.524617,-0.0789 -2.60345,-1.26738 -4.8125,-2.6875 -2.209033,-1.42006 -2.61175,-0.55018 -4.505217,0.3177 -1.893483,0.86779 -2.522783,0.7928 -3.390616,-0.39063 -0.86785,-1.18342 -1.739367,-0.002 -2.291667,0.70833 -0.5522,0.71009 -0.5461,-0.32348 -0.625,-0.79686 -0.07888,-0.47335 -1.5847,-0.15625 -1.979167,-0.15625 -0.394483,0 -0.628683,-0.0704 -0.78645,-0.85939 -0.157867,-0.7889 -1.577183,-0.32516 -2.208333,-0.0885 -0.63115,0.23667 -0.389867,4.42155 -0.468767,5.52603 -0.07888,1.10454 -0.39625,1.18077 -1.421867,1.33855 -1.025633,0.15785 -2.8449665,-0.39346 -3.7916665,-0.63021 -0.9467834,-0.23664 -3.0698501,-1.02525 -3.3854168,-1.10417 -0.3155833,-0.0789 -2.0580667,2.44977 -1.9791667,3.8698 0.0789,1.42013 0.3943,0.78245 0.5520834,1.72917 0.15785,0.94673 -1.0995667,0.71165 -1.57291674,1.97396 -0.47338335,1.26232 0.78765004,1.42094 1.73438344,2.05207 0.9467166,0.63117 1.7407667,-0.9381 2.6875,-1.41145 0.9467167,-0.47337 1.4917334,-0.87565 1.8072834,-1.34895 0.3156167,-0.47345 2.0561334,-1.65607 3.2395835,-2.20833 1.18345,-0.55229 0.865,-0.003 1.890633,0.39061 1.025584,0.39447 -0.71125,1.0274 -0.947933,1.42189 -0.236717,0.39446 -1.8938835,0.94638 -3.1562335,1.10416 -1.2623,0.15784 -1.41955,0.32124 -1.6562667,1.03124 -0.2366667,0.71005 -0.3136833,1.10176 -1.2604,1.89063 -0.9467334,0.78895 0.4774666,1.34415 1.1875,2.3698 0.7100667,1.0256 2.7582501,2.44177 2.4427,3.0729 -0.3155666,0.63117 4.4990332,5.21337 5.1302002,5.76563 0.631133,0.55229 7.1781,3.62692 8.6771,4.4948 0.562117,0.32542 1.199584,0.49004 1.890617,0.58334 1.151717,0.15561 2.449883,0.10441 3.78125,0.20311 0.763533,0.0565 1.161617,-0.0291 1.3698,-0.20311 0.372533,-0.31114 0.134683,-0.93349 0.28645,-1.69272 0.236733,-1.18343 1.111117,-0.3156 2.53125,0 1.420067,0.31557 2.523383,0.47257 3.864583,0.0781 1.341201,-0.39447 -0.471383,-1.02279 0.869784,-1.89062 1.341183,-0.86787 1.497583,-0.46895 2.286467,0.0833 0.788983,0.55229 1.504433,0.0707 1.583333,-0.24478 0.07888,-0.31558 1.49695,-0.55057 1.8125,-0.70833 0.315583,-0.15785 -0.787233,-1.17614 -0.708333,-1.8073 0.07888,-0.63117 2.046866,0.15625 2.046866,0.15625 0,0 1.1823,0.78413 1.1823,1.02083 0,0.23672 -0.625,1.10395 -0.625,1.65625 0,0.55227 -1.344116,1.1034 -2.3698,1.1823 -1.025616,0.0789 -0.94775,1.42402 -1.5,1.73957 -0.1554,0.0887 -0.3594,0.24686 -0.583333,0.4271 -0.572417,0.4607 -1.234367,1.0729 -1.234367,1.0729 0,0 -0.628333,1.25793 -1.890633,2.04688 -1.2623,0.78895 -1.821584,0.16145 -3.557284,0.16145 -1.7357,0 -1.177083,0.94272 -1.177083,0.94272 0,0 -1.498317,1.10205 -2.208333,0.78645 -0.710067,-0.31557 -1.580817,0.15758 -2.3698,0.5521 -0.788917,0.39448 -0.6263,1.10936 -1.020834,1.10936 -0.394416,0 -1.10535,-0.70891 -2.052066,-1.1823 -0.946734,-0.47335 -0.9464,0.31757 -1.104167,0.8698 -0.15785,0.55227 -1.027367,0.15104 -1.421883,0.15104 -0.39445,0 -0.949867,0.55791 -1.817717,1.03126 -0.867867,0.47337 -1.0193,-0.78858 -1.177067,-1.10416 -0.15785,-0.31557 -0.40235,-1.73419 -0.796883,-2.28647 -0.394417,-0.55227 -2.208334,-0.3177 -2.208334,-0.3177 0,0 -0.07838,-0.003 -1.104166,0.23437 -1.0256,0.23671 -1.419584,1.34493 -1.65625,2.29166 -0.236667,0.94677 0.317466,2.36462 0.8698,4.4948 0.552216,2.13012 1.265283,1.58067 2.369783,2.92187 1.104567,1.34115 5.7587,5.99307 6.46875,6.70313 0.710017,0.71004 2.916267,3.54884 4.020834,4.41667 1.104516,0.86783 0.71105,0.94372 1.5,2.4427 0.78895,1.49902 2.049583,3.40072 2.838533,4.5052 0.78895,1.10457 1.49425,1.73462 3.15105,3.3125 1.6568,1.57789 1.5851,1.49385 3.005217,2.125 1.420083,0.63119 1.578533,2.60845 2.604167,3.2396 1.025566,0.63114 2.759466,0.23414 3.390616,0.78645 0.631184,0.55227 2.8224,2.28737 4.479167,1.65625 1.656767,-0.63118 1.199283,-1.89063 1.59375,-1.89063 0.394483,0 1.742133,1.02315 3.083333,0.78647 1.341217,-0.23674 3.785134,-1.10034 5.520834,-1.4948 1.735683,-0.39445 1.969183,-1.57504 2.9948,-1.89062 1.025667,-0.31557 1.41825,-0.48125 3.390617,-0.79688 1.9724,-0.31552 1.58165,-1.1032 2.291666,-1.73437 0.710084,-0.631 1.891817,-0.46727 2.838551,-0.625 0.946716,-0.15787 2.05055,-1.34847 2.208333,-3.0052 0.157833,-1.65682 1.262967,-2.2132 2.604167,-3.31772 1.341216,-1.10452 1.1028,-2.5116 0.708333,-3.45833 -0.394483,-0.94672 -1.1771,-1.10772 -1.1771,-1.81772 0,-0.71003 1.342167,-1.27147 1.5,-1.74478 0.157867,-0.47342 -0.0062,-1.25735 -0.3229,-1.57292 -0.315583,-0.3156 -0.707567,-1.17917 -0.786467,-1.4948 -0.0789,-0.31553 0.46855,-2.76022 1.020834,-3.3125 0.552233,-0.55227 1.03125,-1.18883 1.03125,-1.58333 0,-0.3944 -0.554384,-4.4983 -0.317717,-5.20834 0.236717,-0.71003 1.029733,1.10515 1.1875,2.60417 0.157867,1.49898 0.474367,1.18903 1.5,1.03127 1.025617,-0.15787 2.051867,0.23263 2.604167,0.9427 0.552233,0.71001 -0.715334,1.18671 -2.1354,1.26563 -1.420134,0.0789 -1.025284,1.48755 -1.104167,3.30207 -0.0789,1.81458 0.796533,0.71355 1.901033,0.71355 1.104617,0 1.489,0.55985 1.015634,1.90105 -0.4734,1.3412 -2.204534,1.09951 -2.598967,1.5729 -0.394517,0.47335 0.467033,1.57721 1.177083,2.20833 0.710034,0.63118 3.627684,-0.39302 4.416667,-0.15623 0.788967,0.23665 0.473367,0.94693 0,1.57811 -0.4734,0.63112 -2.432883,0.70889 -2.90625,1.18229 -0.47335,0.47331 0.0789,1.42381 0,2.29166 -0.0789,0.86785 -0.715483,0.63235 -1.583333,0.94794 -0.867867,0.31556 -0.786467,1.3407 -0.786467,1.65623 0,0.31558 0.23635,1.6499 1.104167,2.83334 0.867883,1.1834 1.413766,0.94541 1.1771,1.73438 -0.236734,0.78895 0.240183,1.26972 0.713533,2.45312 0.473367,1.18345 0.86535,1.49593 0.786467,2.44271 -0.0789,0.94672 0.39855,1.82084 1.1875,3.63542 0.788933,1.81458 -0.323534,1.96687 -0.796884,3.22917 -0.473366,1.26233 -1.104,1.26181 -1.65625,1.65625 -0.5523,0.39448 -0.230533,3.15821 -0.625,4.02605 -0.394483,0.86783 -0.869016,1.57715 -0.947916,2.20833 -0.07888,0.63112 0.234733,1.8137 -0.869784,2.7604 -1.104533,0.94677 -0.23225,1.49832 0.08333,2.20833 0.3156,0.71009 0.314616,0.94609 0.6302,2.20834 0.31555,1.26233 0.784766,0.23208 1.4948,0.46876 0.71005,0.23667 -0.30945,1.02894 -0.625,1.26562 -0.315584,0.23668 -0.78875,1.26543 -0.5521,1.81772 0.2367,0.55218 0.6247,0.15975 1.729166,0.86978 1.104534,0.71007 -0.07652,1.10037 -0.78645,1.49478 -0.710016,0.39454 0,2.2134 0,2.76564 0,0.55231 -0.308233,3.46993 0.322917,4.41666 0.63115,0.94677 0.77895,-1.10995 1.015633,-1.58333 0.236717,-0.47332 0.9479,-1.65625 0.9479,-1.65625 0,0 1.659767,-0.39237 2.3698,0.31772 0.710051,0.71001 -0.629816,0.94616 -1.734366,1.65623 -1.104534,0.70998 -0.639284,0.47805 -0.2448,1.66147 0.3945,1.18336 0.2427,0.78856 -0.07292,1.10416 -0.31555,0.31557 -1.25575,0.0766 -1.729167,0.23437 -0.473266,0.15787 -0.709916,1.4981 -0.552083,2.76043 0.15785,1.26227 1.332567,1.41942 1.411467,2.20834 0.07888,0.78893 -1.344534,1.58083 -1.265634,2.36978 0.07888,0.78892 1.036867,1.6538 2.0625,2.44272 1.025617,0.78893 0.717134,0.9242 0.480434,2.58098 -0.2367,1.65678 0.756083,1.49335 0.756083,1.49335 0,0 0.587683,0.19025 0.98205,0.82132 0.1662,0.26588 0.261733,0.87068 0.291133,1.09481 0.199217,0.13339 0.177934,0.80849 0.1796,0.81629 l 191.875906,0.1796 c 0.0807,0.4942 4.11017,-2.30175 5.14154,-2.53862 1.20103,-0.27583 2.72885,-1.84708 3.99118,-2.55712 1.2623,-0.71006 4.81812,-1.96468 5.84375,-2.91145 1.02562,-0.94673 1.72498,-1.89963 3.22397,-4.1875 1.49901,-2.28801 3.32178,-3.86631 4.5052,-5.28646 1.1834,-1.42009 2.4427,-2.51872 2.4427,-4.33334 0,-1.81453 0.63661,-1.33835 1.58333,-1.89063 0.94673,-0.55227 1.09948,-0.80035 1.57293,-1.5104 0.47334,-0.71005 0.47742,-1.2595 1.1875,-1.89063 0.71002,-0.63117 3.78124,-2.20834 3.78124,-2.20834 l 0.39583,-0.78646 c 0.39447,-0.78944 0.24078,-0.6287 1.1875,-0.78645 0.94673,-0.15785 1.02472,-1.10984 0.63022,-2.13542 -0.39445,-1.02562 -0.24232,-0.0765 -1.03125,-0.23437 -0.78892,-0.15788 -1.09724,0.002 -1.8073,-0.39063 -0.71002,-0.39447 -0.47917,-0.24617 -0.47917,-0.64063 0,-0.39445 2.20968,-1.49459 2.60417,-2.04687 0.39446,-0.55223 1.19238,-0.71123 2.29688,-0.94792 1.10453,-0.23668 0.31187,0.63085 -0.16145,1.10417 -0.47333,0.47343 -0.16233,1.3444 -0.0833,1.81772 0.0789,0.47338 0.47296,0.62638 1.10416,1.02083 0.63115,0.39447 1.1873,-0.15172 1.73957,-0.625 0.55228,-0.47318 0.23555,-0.47917 1.1823,-0.47917 0.94673,0 1.7371,-0.54515 2.52603,-1.25521 0.78897,-0.71007 4.09897,-1.50214 4.09897,-1.81772 0,-0.31558 2.52275,-1.02375 3.39063,-1.2604 0.86777,-0.23673 1.58085,-0.78782 2.36979,-1.1823 0.78896,-0.39443 7.34063,-7.3443 7.65625,-7.8177 0.31553,-0.47333 0.0707,-1.34063 -0.2448,-1.65627 -0.31557,-0.31555 -0.62509,-1.49615 -0.0729,-1.89061 0.55226,-0.39447 2.83915,-2.75409 3.3125,-3.9375 0.47336,-1.18342 -0.31759,-1.03707 -0.8698,-1.51042 -0.55229,-0.47338 0.16353,-0.54378 0.47916,-0.85937 0.31557,-0.31558 0.54244,-0.79441 0.46354,-1.58333 -0.0789,-0.78895 -1.34064,-1.57507 -1.65624,-1.89064 -0.31558,-0.31558 -1.57293,-2.52956 -1.57293,-3.23958 0,-0.71003 1.02875,-1.10393 1.81772,-1.65625 0.78886,-0.55228 2.05053,-2.13078 2.20833,-2.60417 0.15765,-0.47335 0.55342,-0.78646 0.94792,-0.78646 0.39445,0 3.23343,-0.39777 3.86458,-1.26562 0.63117,-0.86792 2.208,-0.86382 3.3125,-0.94272 1.10457,-0.0789 2.83813,-0.16135 3.94272,-0.71353 1.10445,-0.55228 -0.16147,-0.94623 -0.16147,-1.65625 0,-0.71008 0.24368,-1.02537 1.42708,-1.10417 1.18342,-0.0789 1.1784,-0.54575 1.57292,-1.72916 0.39443,-1.18344 -0.0789,-0.94984 0,-1.81772 0.0789,-0.86778 1.10608,-1.18538 1.97397,-0.86978 0.86776,0.31556 0.86978,1.89681 0.86978,3.39583 0,1.499 0.78397,0.3862 1.57292,0.30728 0.78893,-0.0789 1.49812,-0.0707 2.76042,-0.30728 1.26231,-0.23672 1.5868,-0.86367 2.29688,-1.49478 0.71002,-0.63119 0.54745,-1.0288 1.02083,-1.81772 0.47334,-0.78898 1.25787,0.70738 2.04687,1.33855 0.7889,0.63113 2.84047,0.23295 3.70833,-0.16147 0.86782,-0.39443 0.2448,-1.1001 0.2448,-2.04686 0,-0.94674 0.23052,-1.34052 0.625,-2.20834 0.39447,-0.86786 -0.15761,-1.97901 -0.5521,-2.53126 -0.39446,-0.5523 -1.01931,-1.10382 -1.17706,-2.20834 -0.15785,-1.10451 -0.39437,-1.0168 -0.5521,-1.96353 -0.1578,-0.94672 0.22698,-0.55522 -0.0885,-2.3698 -0.31556,-1.81458 -0.70015,-1.65835 -1.01563,-1.97395 -0.22357,-0.22352 -0.5209,-0.50023 -0.5677,-1.30728 -0.0204,-0.33234 -0.005,-0.7446 0.0885,-1.29689 0.31559,-1.89346 0.70989,-1.73401 0.5521,-2.83855 -0.15785,-1.10446 -1.10186,-1.17903 -1.33855,-2.04686 -0.2367,-0.86784 0.8696,-1.1889 1.42189,-1.58334 0.55225,-0.39446 0.71173,-2.83918 -0.70834,-3.3125 -1.42013,-0.47338 -3.00426,-0.004 -3.63543,-0.71353 -0.63108,-0.71008 0.47455,-0.94392 0.94793,-1.89063 0.47335,-0.94675 -0.0839,-2.20355 -0.5573,-3.22917 -0.47336,-1.02563 -2.75196,-1.42153 -3.6198,-2.52603 -0.86781,-1.10452 -0.3142,-2.60769 0.39584,-3.31772 0.71003,-0.71007 1.49826,-1.1827 2.20833,-2.20833 0.71003,-1.02562 0.39443,-1.50174 0,-2.92189 -0.39448,-1.42005 -0.003,-2.28066 -0.3177,-3.9375 -0.3156,-1.65676 -2.13643,-0.87346 -3.63542,-1.03123 -1.49902,-0.15767 -2.20567,-0.3131 -3.54688,-0.78647 -1.34119,-0.47338 -2.13309,-1.89275 -2.36979,-2.20833 -0.23665,-0.3156 -1.49635,-3.3152 -1.33855,-4.10417 0.15765,-0.78893 0.55425,-0.8719 0.8698,-1.1875 0.31555,-0.31553 1.18632,-0.0751 2.3698,-0.39063 1.18337,-0.31558 1.33265,-1.73035 1.41145,-2.67707 0.0789,-0.94675 0.40012,-3.0812 1.03125,-2.76563 0.63117,0.31557 0.62586,0.004 2.67709,-0.9427 2.05127,-0.9468 3.0838,-0.087 4.10938,-0.2448 1.02567,-0.15785 1.26709,-1.3421 1.66145,-2.05208 0.39447,-0.71007 -0.0128,-1.33594 -0.40625,-2.67709 -0.39453,-1.34121 -1.4134,-0.55866 -2.28125,-0.95313 -0.86785,-0.39445 -0.54973,-0.6989 -0.78645,-2.1979 -0.23668,-1.499 -0.55905,-0.71355 -1.97916,-0.71355 -1.4201,0 -0.46924,0.3862 -1.4948,0.30728 -1.02569,-0.0789 -1.34804,-0.0706 -1.97917,-0.30728 -0.63115,-0.23673 -0.30577,-0.95215 -0.46354,-1.58333 -0.15786,-0.631 -0.56155,-0.38829 -1.19271,-0.625 -0.6311,-0.23672 -1.25714,-1.26392 -2.125,-1.97395 -0.86777,-0.70999 -2.13524,-0.86652 -2.6875,-1.73439 -0.55227,-0.86778 0,-1.34066 0.55208,-1.65625 0.55227,-0.3156 0.32292,-1.02506 0.32292,-1.65625 0,-0.63116 0.63306,-1.26543 0.86978,-1.81771 0.23668,-0.55231 1.4132,-1.2639 2.83333,-1.97395 1.42005,-0.71002 1.33855,-1.97917 1.33855,-1.97917 l -0.94274,-0.6979 c -0.31557,-0.23667 -0.16145,-1.19271 -0.16145,-1.19271 0,0 0.94626,0.24018 1.65625,0.71355 0.71002,0.47335 0.47328,1.34395 0.55208,2.92187 0.0789,1.57788 0.63834,1.65602 0.875,2.20833 0.23667,0.55228 1.33825,1.34298 2.44272,1.42188 1.10452,0.0789 1.50067,-0.62924 1.42187,-1.26042 -0.0789,-0.63112 -1.18075,-1.18887 -1.33854,-1.58333 -0.15765,-0.39447 0.15754,-0.79244 1.10417,-0.71354 0.94677,0.0789 1.1032,0.71354 1.73437,0.71354 0.631,0 0.625,-0.86979 0.625,-0.86979 0,0 -0.625,-1.18442 -0.625,-1.5 0,-0.31556 1.58333,0.79687 1.58333,0.79687 0,0 0.30715,1.0957 0.85937,1.96354 0.55228,0.86783 2.04688,1.34064 2.04688,1.65625 0,0.31556 2.06353,2.28858 3.5625,2.60416 1.49903,0.31559 2.60243,-0.38601 3.3125,-0.85936 0.71007,-0.47339 0.30692,-1.10632 1.41145,-1.42188 1.10447,-0.31555 1.73733,1.17676 1.97397,2.28124 0.23671,1.10457 -0.55055,1.5062 -0.70834,3.00522 -0.15785,1.49897 0.3882,1.01818 1.17709,2.35938 0.78898,1.34122 0.39831,2.05267 -0.39062,2.52604 -0.78895,0.47335 -0.71355,1.89975 -0.71355,3.63541 0,1.73517 2.69102,2.04474 3.40105,1.72917 0.71002,-0.3156 1.18022,0.3941 2.99478,1.10417 1.81452,0.71 1.02862,-0.70404 2.36979,-0.0729 1.34123,0.63113 1.17831,0.70162 4.25521,0.85937 3.07689,0.15786 1.81719,-1.4136 3.47395,-1.72917 1.6568,-0.31558 1.58052,0.15972 3.47397,0.8698 1.8935,0.71003 3.1559,-0.87113 4.26042,-1.26563 1.10451,-0.3944 0.31488,0.0803 2.20833,0.39583 1.89347,0.31557 2.12765,0.87348 5.59895,1.03127 3.47138,0.15785 2.20823,-0.3189 2.76043,-1.26564 0.5523,-0.94671 1.33854,-0.2448 1.33854,-0.2448 0,0 0.0781,0.0108 2.20833,-0.14583 2.13007,-0.15783 0.7898,-0.1579 2.05208,0.5521 1.26235,0.7098 1.73959,0.6979 1.73959,0.6979 l 0.71353,0 c 0.71003,0 1.02488,0.1611 2.20833,1.26563 1.18339,1.10449 -0.4788,0.0833 -1.58333,0.0833 -1.10455,0 -2.20833,1.33853 -2.20833,1.33853 0,0 0.47215,1.496 1.73438,2.44272 1.26237,0.94673 -0.0744,0.78631 -0.46875,1.33855 -0.39443,0.55226 -1.66223,0.39395 -1.58333,1.65623 0.0793,1.26232 0.0833,3.16667 0.0833,3.16667 0,0 -0.79428,-0.16589 -2.13542,-0.24479 -1.34123,-0.0789 -1.4101,0.47634 -1.01561,2.36979 0.39438,1.8935 0.0729,2.52605 0.0729,2.52605 0,0 -1.18424,-0.86825 -2.05207,-1.02605 -0.86782,-0.15762 -1.33855,0.5521 -1.33855,0.5521 0,0 -0.8718,0.23708 -1.73958,1.02603 -0.86787,0.78892 -0.16109,1.33777 -1.26564,1.41667 -1.10451,0.0789 -1.88191,0.007 -3.30206,0.95313 -1.42004,0.94673 -1.51044,2.125 -1.51044,2.125 0,0 0.0851,2.36732 -0.625,3.15623 -0.71005,0.78899 -0.31171,0.871 -0.39061,1.81772 -0.0789,0.94678 -0.64062,1.81972 -0.64062,2.6875 0,0.86787 0.946,2.27835 2.20833,4.17188 1.26224,1.89345 1.34895,5.20657 1.34895,5.91667 0,0.71003 0.78645,1.97395 0.78645,1.97395 0,0 1.41515,-0.54822 1.57294,-0.94272 0.15785,-0.39441 -0.39064,-1.34066 -0.39064,-1.65623 0,-0.3156 0.87192,-1.1929 1.1875,-0.64063 0.31552,0.55228 1.10572,1.35205 0.94792,3.16666 -0.15783,1.81454 0.46938,1.34065 0.94272,1.65625 0.47336,0.31557 1.26388,0.62657 1.97395,0.46875 0.70998,-0.15785 2.04745,-1.49386 2.52083,-2.125 0.47335,-0.63116 0.40105,-2.76835 0.40105,-3.5573 0,-0.7889 -0.79688,-2.7604 -0.79688,-2.7604 0,0 1.18658,-1.8071 1.81771,-2.35938 0.631,-0.55227 0.78275,-1.82563 0.625,-2.61458 -0.1577,-0.78895 -0.22701,-1.72899 0.0885,-2.28125 0.3156,-0.55227 0.54956,0.31636 1.33853,-0.0781 0.78885,-0.3945 0.70797,-0.78725 1.8125,-0.70833 1.10453,0.0789 0.95248,0.31521 0.47917,1.10416 -0.47339,0.7889 0.6308,0.86132 1.10416,1.72917 0.47334,0.86782 1.33279,1.02472 0.85939,2.7604 -0.47335,1.73568 0.79361,3.23845 1.66145,4.42188 0.86786,1.18342 0.71433,0.46687 0.63543,1.72917 -0.0789,1.26233 0.47713,2.37095 -0.39063,3.31772 -0.86785,0.94673 -0.0831,1.94215 0.9427,3.59895 1.02563,1.65678 0.94176,0.90436 1.57293,2.16666 0.6311,1.2623 0.0833,2.36134 0.0833,3.22917 0,0.0593 0.01,0.1221 0.0208,0.19272 0.1656,0.95938 1.35351,2.87791 0.76561,3.83333 -0.63115,1.02557 1.42204,5.6796 0.86979,7.02083 -0.55229,1.34117 0.23331,2.1271 1.41666,2.4427 1.18344,0.31559 1.18152,-0.70951 1.26044,-1.65625 0.0789,-0.94671 -0.0757,-1.10828 1.26561,-0.16145 1.34114,0.94672 1.65807,1.34665 3.07812,1.58334 1.42017,0.2367 0.70893,-1.50042 1.1823,-2.52605 0.47337,-1.02564 0.31757,-1.26314 0.8698,-2.05209 0.55227,-0.78888 1.17842,-1.33663 1.5729,-2.59896 0.39447,-1.26232 -1.1043,-2.76294 -0.55207,-4.10417 0.37532,-0.91143 0.31217,-1.34745 0.23437,-1.78123 -0.0367,-0.20454 -0.0781,-0.40869 -0.0781,-0.66147 0,-0.78895 -1.17337,-1.897 -1.01562,-2.84375 0.15785,-0.94673 -0.0838,-2.36365 -0.55728,-2.99478 -0.47334,-0.63117 -0.55499,-1.8189 -0.79167,-2.76564 -0.23667,-0.94671 0.8673,-2.20603 1.65623,-2.4427 0.78892,-0.23668 1.90077,-0.15405 3.00522,-0.39063 1.10451,-0.23672 0.15759,-2.60825 0.55208,-3.79167 0.39448,-1.1834 -1.50674,-3.787 -1.34895,-4.26041 0.15785,-0.47332 0.87124,-1.49965 1.26562,-2.60417 0.39451,-1.10455 -0.23804,-1.18503 -0.39583,-1.97395 -0.15786,-0.78893 -0.0849,-5.83547 0.0729,-6.15105 0.15764,-0.3156 1.1903,-0.79227 1.97917,-1.26562 0.78899,-0.47338 1.26163,0.16487 2.20833,0.875 0.94676,0.71002 1.34647,0.62514 2.13542,0.0729 0.78891,-0.5523 0.70361,-0.46893 1.72917,0.0833 1.02569,0.5523 2.44814,1.33696 4.02604,-0.6354 1.57786,-1.97234 -0.15625,-1.02707 -0.15625,-2.52605 0,-1.49899 0.39488,-1.02645 1.02604,-2.05209 0.63114,-1.02561 0.54897,-2.60211 0.86458,-4.41666 0.31549,-1.81459 1.58315,-1.81522 2.13542,-2.60417 0.55224,-0.78892 0.14958,-1.5703 0.30729,-2.91147 0.15785,-1.34126 1.02355,-1.19078 1.8125,-2.45311 0.78894,-1.2623 0.71354,-4.89472 0.71354,-6.07812 0,-1.18348 -0.31291,-0.55195 -1.33854,-1.10417 -1.0256,-0.55228 -0.87192,-1.57101 -1.1875,-2.83333 -0.31552,-1.26233 1.8125,-2.60417 1.8125,-2.60417 0,0 1.02876,-0.70736 1.81771,-1.33855 0.78891,-0.63111 1.34663,-1.51021 1.58333,-2.0625 0.23667,-0.55225 0.54591,-1.73269 1.17709,-2.44271 0.6311,-0.71007 0.006,-3.46777 0.16146,-4.09895 0.15785,-0.63112 1.18516,-2.36576 1.42187,-3.3125 0.23668,-0.94672 -0.48131,-1.3442 -0.79687,-2.3698 -0.31558,-1.02559 0.16754,-1.09552 0.0885,-2.51562 -0.0789,-1.42011 -1.26179,-2.53166 -1.65625,-3.55729 -0.39439,-1.02558 1.48869,-2.60632 2.11979,-2.92188 0.63116,-0.31556 2.37174,-0.55345 3.23958,-0.94791 0.86783,-0.39447 0.39952,-0.93807 0.55729,-1.41146 0.15785,-0.47335 1.49827,-1.50041 2.20834,-2.52604 0.49605,-0.71659 1.18687,-2.49604 2.2986,-3.24172 0.0109,-0.007 0.41413,-0.49621 0.42493,-0.50341 l -60.81872,-0.008 c -0.002,0.005 -0.58925,1.59845 -0.67955,1.79705 -0.78898,1.73569 -0.55641,1.79135 -0.24085,4.23707 0.3156,2.44578 1.02545,2.28708 0.5521,2.76041 -0.4734,0.47341 -0.71345,-0.39044 -1.26563,-0.94271 -0.55228,-0.55224 -2.28457,-0.55208 -3.54687,-0.55208 -1.2623,0 -1.973,1.89063 -2.60416,1.89063 -0.63119,0 -1.97735,-0.23438 -3.2396,-0.23438 -1.26235,0 -0.55194,1.11015 -1.10417,1.03125 -0.55227,-0.0785 -2.04343,-0.16734 -3.46353,-0.0885 -1.42007,0.0789 -1.65959,1.34436 -2.92187,1.81771 -1.2623,0.47339 -6.07472,-0.15728 -7.4948,-1.65625 -1.42012,-1.49898 -2.60417,-1.10417 -2.60417,-1.10417 0,0 0.4932,0.95079 -1.47916,1.1875 -1.9724,0.23668 -1.67922,0.70875 -1.9948,1.73438 -0.31559,1.02558 -0.8671,0.71002 -2.20834,0 -1.34116,-0.71003 -1.5,0 -1.5,0 0,0 -0.1596,1.73727 -1.42186,1.97395 -1.26224,0.23671 -2.59435,-0.39648 -3.0677,-0.86979 -0.47339,-0.47339 -0.79362,-0.87344 -1.66147,-1.03125 -0.86783,-0.15785 -0.94617,-0.31675 -1.65625,-0.94791 -0.71002,-0.63114 -1.89863,0.0845 -2.6875,1.03125 -0.78897,0.94674 -2.05047,0.0829 -2.76042,-0.94271 -0.71006,-1.02563 -3.78568,-2.05794 -3.86458,-2.53125 -0.0789,-0.47339 -0.22975,-1.18286 -0.70312,-1.65625 -0.47336,-0.47339 -1.18983,-1.02144 -0.95313,-1.49479 0.23665,-0.47337 1.34897,-1.73868 1.34897,-2.3698 0,-0.63118 -0.31542,-1.33619 -0.5521,-1.57291 -0.0644,-0.0642 -1.81175,-1.3448 -1.81509,-1.34967 l -11.33527,-0.24868 c 0,0.005 -1.09986,3.12859 -1.14138,3.95772 -0.0787,1.57794 0.006,2.7647 -0.625,3.39584 -0.63117,0.63116 0.0742,1.73417 0.46877,2.28645 0.39446,0.55223 2.6875,4.81311 2.6875,5.28646 0,0.47337 -0.003,3.46898 -0.31772,5.04688 -0.31548,1.57786 -0.55347,1.96917 -0.94792,2.99479 -0.39445,1.02563 -0.78481,-0.23631 -1.4948,-1.10417 -0.71006,-0.86787 -1.74191,-0.38266 -3.6354,0.40625 -1.89343,0.78892 -1.1827,0.9346 -2.20833,0.69792 -1.02558,-0.23675 -1.0966,-0.70052 -4.01563,0.0885 -2.91914,0.78891 -2.83917,-0.55348 -3.3125,-0.94792 -0.4734,-0.39447 -1.1922,-1.58546 -2.84897,-1.90104 -1.65678,-0.3156 -3.15623,2.45313 -3.15623,2.45313 0,0 -0.70725,-0.63913 -1.89064,-0.79688 -1.18346,-0.15785 -0.94446,0.39661 -2.36458,0.31771 -1.42008,-0.0789 -1.25732,-0.70373 -1.57292,-1.17708 -0.31555,-0.47339 -2.21415,-1.73959 -2.6875,-1.73959 -0.4734,0 -1.18503,1.26272 -1.97396,1.02605 -0.78895,-0.23672 -0.87232,-1.02585 -2.21354,-1.57813 -1.3412,-0.55223 -0.93786,0.63293 -1.96353,1.42188 -1.02563,0.78896 -1.34527,0.63716 -1.1875,-0.0729 0.15783,-0.71007 -0.23572,-1.19484 -0.63022,-1.51042 -0.39445,-0.3156 -1.03125,-0.62847 -1.03125,-1.33854 0,-0.71003 -0.70936,-1.41515 -2.20833,-1.57292 -1.49902,-0.15785 -1.33473,0.71355 -1.72917,0.71355 -0.39446,0 -2.1287,0.47085 -2.28646,0.78645 -0.15785,0.31556 -1.66204,-0.40375 -2.1354,-1.1927 -0.47337,-0.78893 -5.83802,-2.51776 -7.4948,-2.83334 -1.65677,-0.31561 -1.10417,-0.47631 -1.10417,-2.36979 0,-1.89346 -1.72823,-4.41808 -2.35937,-4.8125 -0.63116,-0.39447 -3.16186,0.39679 -4.1875,-0.23437 -1.02561,-0.63114 -0.39273,-0.86518 -0.70833,-1.33855 -0.31558,-0.47335 -1.33568,-0.86749 -3.22917,-1.10416 -1.89348,-0.23668 -0.32271,0.55208 -0.875,0.55208 -0.55223,0 -1.50391,-0.0776 -3.2396,0.39583 -1.73566,0.47339 -0.78645,1.57292 -0.78645,1.57292 0,0 -1.185,-0.16116 -1.97395,-0.71354 -0.78895,-0.55225 -3.62561,-0.22856 -4.09896,0.24479 -0.4734,0.47337 -0.5542,1.81385 -0.8698,2.20833 -0.31559,0.39447 -0.86439,-0.31521 -1.41667,-1.10416 -0.55222,-0.78891 -6.1842,-0.79219 -7.05207,-1.26563 -0.86778,-0.47335 -0.68306,-0.55155 -0.60416,-2.20833 0.0789,-1.65679 -1.09575,-1.34511 -1.96355,-1.73958 -0.0184,-0.008 -0.0342,-0.019 -0.0521,-0.026 -0.0155,-0.006 -0.0315,-0.0104 -0.0469,-0.0156 l -0.6875,0 c -0.0212,0.006 -0.0412,0.009 -0.0625,0.0156 -0.56835,0.1758 -1.1548,0.62919 -1.83855,0.73438 -0.68609,0.1056 -2.00769,0.722 -4.5193,-0.96045 -0.28735,-0.19248 -0.59027,-0.41505 -0.90959,-0.67191 -0.005,-0.005 -211.745143,-0.0156 -211.745143,-0.0156 z"
     id="rect6"
     inkscape:connector-curvature="0"
     sodipodi:nodetypes="ccsscscccccssccsccssscsccccccsccccccsccccccsccccccccccccsccccccccscccccssccscssccssccssccccsccscscsccccscscccccscsscccscccccssccccccscsccscsscccccccccscsccccccccccccscccccscsccscccccccccscsccccscsccccccccccsccscccscccssccccccsccccccccccccccccccccccccccccccccccscccccccscsccccccscccscsccsscsccccsccscscccccccccssscccccscccccscccsscsccscccccsccccccccccccccscccccssscsccscccccsccccccccssscscssccccccccccccccccccccccssscccsccccccccccccscsccccccscscccccsccscscccccscscscscssssccccccccccccccsccc" />
  <g
     transform="matrix(3.7430274,0,0,3.7430301,204.45107,280.66747)"
     id="g10">
    <circle
       r="20"
       id="circle12"
       d="m 20,0 c 0,11.045695 -8.954305,20 -20,20 -11.045695,0 -20,-8.954305 -20,-20 0,-11.045695 8.954305,-20 20,-20 11.045695,0 20,8.954305 20,20 z"
       cx="0"
       cy="0"
       sodipodi:cx="0"
       sodipodi:cy="0"
       sodipodi:rx="20"
       sodipodi:ry="20"
       style="fill:#000088" />
    <circle
       r="17.5"
       id="circle14"
       d="M 17.5,0 C 17.5,9.6649831 9.6649831,17.5 0,17.5 -9.6649831,17.5 -17.5,9.6649831 -17.5,0 c 0,-9.6649831 7.8350169,-17.5 17.5,-17.5 9.6649831,0 17.5,7.8350169 17.5,17.5 z"
       cx="0"
       cy="0"
       sodipodi:cx="0"
       sodipodi:cy="0"
       sodipodi:rx="17.5"
       sodipodi:ry="17.5"
       style="fill:#ffffff" />
    <circle
       r="3.5"
       id="circle16"
       d="M 3.5,0 C 3.5,1.9329966 1.9329966,3.5 0,3.5 -1.9329966,3.5 -3.5,1.9329966 -3.5,0 c 0,-1.9329966 1.5670034,-3.5 3.5,-3.5 1.9329966,0 3.5,1.5670034 3.5,3.5 z"
       cx="0"
       cy="0"
       sodipodi:cx="0"
       sodipodi:cy="0"
       sodipodi:rx="3.5"
       sodipodi:ry="3.5"
       style="fill:#000088" />
    <g
       id="d">
      <g
         id="c">
        <g
           id="b">
          <g
             id="a">
            <circle
               r="0.875"
               transform="matrix(0.99144486,0.13052619,-0.13052619,0.99144486,17.350285,2.2842084)"
               id="circle22"
               d="M 0.875,0 C 0.875,0.48324916 0.48324916,0.875 0,0.875 -0.48324916,0.875 -0.875,0.48324916 -0.875,0 c 0,-0.48324916 0.39175084,-0.875 0.875,-0.875 0.48324916,0 0.875,0.39175084 0.875,0.875 z"
               cx="0"
               cy="0"
               sodipodi:cx="0"
               sodipodi:cy="0"
               sodipodi:rx="0.875"
               sodipodi:ry="0.875"
               style="fill:#000088" />
            <path
               d="M 0,17.5 0.6,7 C 0.6,7 0,2 0,2 0,2 -0.6,7 -0.6,7 L 0,17.5 z"
               id="path24"
               inkscape:connector-curvature="0"
               style="fill:#000088" />
          </g>
          <use
             xlink:href="#a"
             transform="matrix(0.96592583,0.25881905,-0.25881905,0.96592583,0,0)"
             id="use26"
             x="0"
             y="0"
             width="225"
             height="150" />
        </g>
        <use
           xlink:href="#b"
           transform="matrix(0.8660254,0.5,-0.5,0.8660254,0,0)"
           id="use28"
           x="0"
           y="0"
           width="225"
           height="150" />
      </g>
      <use
         xlink:href="#c"
         transform="matrix(0.5,0.8660254,-0.8660254,0.5,0,0)"
         id="use30"
         x="0"
         y="0"
         width="225"
         height="150" />
    </g>
    <use
       xlink:href="#d"
       transform="matrix(-0.5,0.8660254,-0.8660254,-0.5,0,0)"
       id="use32"
       x="0"
       y="0"
       width="225"
       height="150" />
    <use
       xlink:href="#d"
       transform="matrix(-0.5,-0.8660254,0.8660254,-0.5,0,0)"
       id="use34"
       x="0"
       y="0"
       width="225"
       height="150" />
  </g>
  <path
     inkscape:connector-curvature="0"
     style="fill:#ff9933;fill-opacity:1"
     d="m 128.71849,1.9789923e-4 c -0.0209,-6.67e-4 -0.041,1.66e-4 -0.0625,0.005200001 -0.64571,0.143 -1.13541,1.807291 -1.13541,1.807291 l -0.55209,0.796875 -1.10416,-0.552083 -1.10417,-1.192708 -1.2552,0.640625 -0.70833,1.104166 -1.34897,0.942709 -1.02083,-0.390625 -0.8698,0.552083 -1.33854,1.411458 -1.33853,-1.260416 -1.7448,-1.182292 -1.26563,0 -0.6979,1.182292 c 0,0 0.0729,1.183655 0.0729,1.578125 0,0.39448 1.10416,0.234375 1.10416,0.234375 l 1.10417,1.03125 c 0,0 0.23225,1.103401 -0.0833,1.182291 -0.31558,0.0789 -1.17707,-0.161458 -1.17707,-0.161458 0.15784,0.39447 -2.84261,-0.387368 -4.02605,-1.255208 -1.18341,-0.86784 -1.89758,-0.156437 -3.31771,0.395833 -1.42007,0.552262 -1.8092,0.148168 -2.67707,-0.08854 -0.86783,-0.23668 -1.4171,0.633935 -2.44272,2.921875 -1.02563,2.2879301 -1.1098,0.3130991 -2.13542,0.7864591 -1.02569,0.47337 -1.01929,1.341856 -1.17709,2.604166 -0.15785,1.26231 -0.16913,0.400689 -1.51041,1.505209 -1.34119,1.10453 -1.09435,0.07181 -1.5677,1.255208 -0.47335,1.183418 -0.86867,0.551907 -2.0521,1.104168 -1.1834,0.55227 -1.73912,0.791361 -0.71354,4.026041 0.51285,1.61733 0.72789,1.817192 0.79687,1.807292 -0.0218,0.0539 -0.0466,0.19585 -0.0833,0.5625 -0.15783,1.57789 -0.47587,1.18851 0.78647,2.6875 1.26228,1.49899 1.81683,-0.01188 4.57813,0.145833 2.76128,0.15779 2.12676,-0.62399 3.54688,0.875 1.42008,1.499 2.44601,2.841259 3.70833,3.630209 1.26233,0.78894 0.23398,0.631983 1.33853,2.052083 1.10452,1.4201 2.0504,0.315757 2.76044,-0.552083 0.71003,-0.86784 1.41973,-0.08541 1.10416,1.729166 -0.31561,1.81458 -0.079,1.8212 0.55207,2.53125 0.6312,0.71005 0.24798,0.471112 2.0625,2.364584 1.81458,1.89347 2.04193,0.235561 3.6198,1.182291 1.5779,0.94673 0.0771,2.132582 -1.42187,4.026042 -1.49908,1.89347 -1.33358,1.260248 -2.91146,1.8125 -1.5779,0.55227 -2.05865,-0.162587 -2.45314,1.020833 -0.39446,1.18341 -0.23613,0.557517 -1.65623,2.135417 -1.4201,1.57788 -0.9391,0.948503 -2.91147,1.421875 -1.97235,0.47337 -0.15791,1.018165 0.55209,2.359375 0.71006,1.34121 -0.47917,0.561195 -0.47917,2.296875 0,1.73568 0.71568,1.335697 1.03125,3.229167 0.31558,1.89346 -0.8698,1.730765 -0.8698,3.703125 0,1.972371 0.7097,0.717631 1.10417,1.901041 0.39448,1.18342 0.23861,3.86116 0.8698,5.28125 0.63111,1.42009 0.15793,1.028592 -0.55209,2.369792 -0.71003,1.341212 -0.62968,2.209333 -0.15625,3.708333 0.47335,1.499 -0.16138,1.663832 -0.71353,3.557292 -0.55228,1.89346 2.76177,3.304212 3.15623,3.619792 0.39449,0.31558 2.43852,1.192708 3.9375,1.192708 1.49899,0 2.45182,0.855177 4.1875,2.354167 1.73567,1.499 1.02742,0.244448 1.42189,1.348958 0.39448,1.104533 2.84263,0.863043 4.02605,1.020833 1.18343,0.15785 2.21005,0.161027 1.5,1.817709 -0.70815,1.65238 0.071,1.88665 1.71873,3.375 l 0.0105,0.01042 c 1.65682,1.499 1.65357,-0.07097 2.99478,0.796875 1.34119,0.867784 1.97144,-0.634406 2.76042,0.864584 0.78895,1.499 2.6447,-0.931047 3.82813,2.145833 1.18342,3.076872 -3.27571,4.089492 -4.38021,3.458332 -1.1045,-0.63116 -2.28677,0.23983 -3.86459,1.81771 -1.57795,1.5779 -1.34035,1.17708 -2.76041,1.17708 -1.4201,0 -1.33835,1.0303 -1.89062,1.66146 -0.55228,0.63116 -0.0763,0.86499 -1.33855,1.89062 -1.2623,1.02562 -0.31577,1.42135 0.55208,3.07813 0.23865,0.45561 0.32677,0.55928 0.35937,0.55208 0.0163,0.18824 0.10273,0.70109 0.4271,2.05209 0.94672,3.94472 0.47372,1.18004 -1.10417,3.54687 -1.57791,2.36683 -0.0782,2.45413 0.47395,3.95313 0.55229,1.49899 -0.48096,0.14928 -1.90105,0.85937 -1.42011,0.71004 -1.72901,1.49793 -2.28123,3.3125 -0.55228,1.81458 0,0.4813 0,0.79688 0,0.31557 -0.55078,0.93772 -2.28647,2.51562 -1.7356,1.57788 -0.87171,0.63642 -1.73958,2.13542 -0.86782,1.49897 -2.91958,1.88933 -3.15625,3.625 -0.23668,1.73569 0.71218,3.00853 0.3177,4.27083 -0.39447,1.26234 -1.1804,-0.0105 -2.4427,1.56771 -1.26235,1.5779 -3.31198,1.49631 -4.96875,1.33854 -1.65678,-0.15785 -2.84723,2.3668 -3.55728,4.8125 -0.71009,2.44576 -0.2319,2.69063 -1.02085,4.50521 -0.78896,1.81457 -0.32448,0.47019 -2.29688,2.99479 -1.97235,2.5246 -0.22437,1.89642 -1.25,2.36979 -1.02562,0.47335 -0.47668,0.23383 -1.26562,1.89063 -0.78896,1.65679 -1.02686,1.58627 -3.07813,3.95312 -2.05125,2.36681 -2.21268,1.48648 -4.97397,1.80208 -2.76131,0.31558 -1.3368,0.48017 -2.04686,1.97917 -0.71004,1.49896 -1.33952,1.3382 -2.83854,2.44271 -1.49903,1.10455 -0.63661,1.34365 -1.58333,4.02604 -0.94673,2.68245 -2.2053,2.687 -4.65105,4.34375 -2.44573,1.6568 -1.34275,1.97113 -1.97395,3.86458 -0.6311,1.8935 -1.50278,1.57062 -4.42188,1.8073 -2.91909,0.23672 -2.67617,-0.63033 -5.4375,-0.0781 -2.76132,0.5523 -1.8984,0.32063 -3.23959,0.5573 -1.34123,0.23668 -1.6559,0.15831 -2.76041,0.47395 -1.10455,0.3156 -1.34412,1.40915 -2.36979,1.64583 -1.02563,0.2367 -0.86903,-0.77797 -0.94793,-1.64583 -0.0789,-0.86784 -0.62345,-0.7141 -0.78123,-1.1875 -0.15787,-0.47335 0.22916,-1.41827 0.22916,-3.39062 0,-1.97235 -2.28403,-1.41607 -5.20313,-0.94272 -2.9191,0.4734 -3.07527,1.49579 -4.96875,2.9948 -1.89345,1.49897 -3.94467,5.75487 -4.8125,6.85937 -0.009,0.0117 -0.0173,0.0242 -0.0261,0.0365 l 219.47917,0 c -0.21403,-0.1917 -0.43671,-0.40669 -0.67186,-0.66147 -0.94675,-1.02562 -4.26432,-2.7641 -6,-2.92187 -1.7357,-0.15785 -2.20722,0.39584 -3.39064,0.39584 -1.18343,0 -1.26548,-0.48037 -1.8177,-1.42709 -0.55228,-0.94678 -2.84356,-1.09801 -3.39583,-1.72916 -0.55228,-0.63115 -0.62777,-0.86484 -1.41667,-2.44272 -0.78896,-1.5779 -1.7371,-0.24597 -2.52603,-1.1927 -0.78895,-0.94675 -2.83895,-2.9134 -3.8646,-3.78125 -1.0256,-0.86783 -2.05785,0.003 -2.53123,-0.39063 -0.47337,-0.39444 -1.6559,-0.71354 -2.76044,-0.71354 -1.10451,0 -3.38078,-3.07563 -3.85416,-3.86458 -0.47334,-0.78895 -1.02512,-0.95025 -1.65624,-0.71355 -0.63118,0.23672 -0.24385,1.89428 -0.875,2.05208 -0.63115,0.15785 -1.41938,-0.4746 -2.20833,-0.94791 -0.78895,-0.47339 -5.20313,-3.54664 -5.20313,-4.09896 0,-0.55223 1.2549,-0.47533 2.35936,-0.86979 1.10457,-0.39447 0.39507,-0.94755 0.47397,-2.05208 0.0789,-1.10451 0.15517,-1.74071 1.33853,-2.6875 1.18344,-0.94672 0.002,-2.43848 -0.15623,-3.9375 -0.15765,-1.49897 0.39855,-1.3457 1.1875,-2.21354 0.78943,-0.86783 0.62865,-2.12542 0.78645,-3.15105 0.15785,-1.02564 0.63542,-1.65625 0.63542,-1.65625 0,0 1.33971,-0.004 2.28646,-1.26562 0.94672,-1.2623 0.15624,-1.97396 0.15624,-1.97396 0,0 0.94758,-0.23362 2.0521,-0.3125 1.10455,-0.0789 1.89271,-1.33896 2.20833,-2.36458 0.31555,-1.02565 0.39335,-1.50446 1.18228,-1.58334 0.789,-0.0789 2.76854,-0.23557 3.00522,-1.18229 0.23667,-0.94674 -0.24458,-2.28706 -0.79688,-2.76041 -0.5522,-0.47339 -2.21167,0.15925 -3.47395,-0.15625 -1.26234,-0.3156 -0.31082,-1.65513 -1.02084,-2.83855 -0.71008,-1.18343 -4.42241,1.7e-4 -4.89583,-0.55208 -0.47335,-0.55228 -0.54923,-1.02973 -2.44272,-1.1875 -1.8935,-0.15785 -0.79243,-0.65035 -0.71355,-2.85937 0.0789,-2.20906 -1.49463,-1.40317 -2.04686,-1.71875 -0.55229,-0.31558 -0.94642,-0.23343 -1.10417,-0.86459 -0.15785,-0.63116 -0.55697,-0.63908 -1.66147,-0.79687 -1.1045,-0.15785 -0.54575,-0.22822 -1.72916,-0.85938 -1.18342,-0.63116 -1.8947,-1.50445 -3.07812,-1.58333 -1.1834,-0.0789 -1.02415,0.875 -2.28645,0.875 -1.26232,0 -1.74077,-1.34629 -2.6875,-2.6875 -0.94672,-1.34121 -1.73072,-0.71455 -1.57293,-2.21354 0.15785,-1.499 -0.94832,-2.35399 -1.97395,-2.90625 -1.0256,-0.55227 -0.94792,-0.95371 -0.94792,-1.42708 0,-0.47338 -0.54943,-0.55209 -1.89063,-0.55209 -1.34115,0 -1.34877,1.18406 -1.90104,2.60417 -0.55228,1.42009 -1.25,0.86979 -1.25,0.86979 l -0.79686,-2.84375 c 0,0 -1.23254,-1.34203 0.1875,-2.05208 1.42006,-0.71004 0.68461,-1.42093 0.4479,-2.05209 -0.23669,-0.63116 -1.98012,-3.30847 -1.34895,-4.2552 0.63116,-0.94674 0.31771,-1.10151 0.31771,-2.44271 0,-1.34121 -0.15735,-0.7155 -1.10416,-1.58334 -0.94674,-0.86783 -1.41974,-0.8627 -1.10417,-2.125 0.31558,-1.262314 -0.94987,-1.506555 -1.81772,-1.901035 -0.86785,-0.39447 -0.31185,-0.55326 0.16145,-1.5 0.47339,-0.94674 0.006,-0.859209 -0.0729,-1.411459 -0.0477,-0.33365 -0.24043,-1.246606 -0.33333,-2.072916 -0.061,-0.54138 -0.0828,-1.047055 0.0103,-1.328125 0.23669,-0.71005 1.89779,-0.471055 2.76564,-0.234375 0.53483,0.14582 0.79333,0.77196 0.97396,1.5625 0.11237,0.49215 0.19565,1.04886 0.28645,1.59375 0.23669,1.42009 1.33839,1.662046 1.89062,2.135416 0.55228,0.473374 1.11135,0.395834 1.97917,0.395834 0.86785,0 2.05051,-1.425357 2.20833,-2.135417 0.15785,-0.71005 0.23423,-1.178603 0.78647,-1.020833 0.55226,0.15786 1.10998,-0.08831 1.58333,-0.640625 0.0871,-0.10157 0.16428,-0.217015 0.23437,-0.328125 0.31113,-0.49268 0.50061,-1.010417 1.01563,-1.010417 0.63113,0 0.63658,0.786458 1.58333,0.786458 0.94672,0 1.42097,-0.857658 2.05209,-1.567708 0.63118,-0.71004 1.26795,-2.850135 1.03125,-3.796875 -0.23669,-0.94672 -3.79535,-4.341258 -3.95314,-5.130208 -0.15785,-0.78895 1.10789,-2.760054 1.26564,-3.864584 0.15783,-1.10451 -0.55555,-1.021421 -1.26564,-1.494791 -0.71003,-0.473374 -1.81386,-0.159244 -2.20833,-0.395834 -0.39448,-0.23668 -1.5033,-0.634631 -2.76562,-0.713541 -1.2623,-0.0789 -2.44505,-0.228215 -2.20833,-0.859375 0.23668,-0.63116 -0.0751,-1.817532 -0.39062,-2.369792 -0.31553,-0.552252 0.23437,-1.973958 0.23437,-1.973958 0,0 0.98557,-1.815237 1.9323,-2.604167 0.94677,-0.78895 0.59155,-1.026042 0.27603,-1.026042 -0.31561,0 -0.62423,-0.865005 -0.70313,-1.890625 -0.0789,-1.02565 -0.55847,-0.638496 -1.5052,-0.322916 -0.94677,0.31556 -1.18248,-0.861494 -0.6302,-1.177084 0.55225,-0.31558 0.23437,-1.334686 0.23437,-1.729166 0,-0.394469 1.66575,-0.480707 2.29686,-0.322917 0.63119,0.15779 2.20784,0.786282 3.8646,1.338542 1.65679,0.55227 2.27894,0.31708 2.51562,-0.15625 0.23668,-0.47337 0.008,-1.570425 1.34895,-2.359375 1.3412,-0.78894 0.79012,-1.031084 0.94793,-1.583334 0.15785,-0.55227 0.63445,-4.104755 1.26562,-4.578125 0.63117,-0.47337 2.67543,-0.469338 3.38542,-0.942708 0.71006,-0.47336 0.0766,-2.211835 0.23436,-2.921875 0.15765,-0.710062 1.02727,-0.234375 1.97397,-0.234375 0.94675,0 2.04595,-0.549592 2.67708,-1.338542 0.63117,-0.78894 0.0107,-3.558478 0.40625,-4.505208 0.39442,-0.94674 0.86535,-1.10245 0.78647,-1.8125 -0.0789,-0.71005 0.15312,-1.650865 0.46873,-2.203125 0.3156,-0.552262 1.02959,-1.741535 1.7396,-2.609375 0.71007,-0.867842 0.54764,-2.607305 0.46874,-4.421875 -0.0789,-1.81457 -2.52142,-2.436558 -2.99479,-3.067708 -0.47338,-0.63116 -1.02436,-0.944072 -1.73438,-1.338542 -0.71005,-0.39448 -1.18502,-1.186558 -1.97395,-1.817708 -0.78893,-0.63116 -2.44388,-0.232835 -3.39062,-0.390625 -0.94676,-0.15779 -0.71418,-0.561559 -1.1875,-1.192709 -0.47338,-0.63116 -1.49753,-0.470878 -2.28646,-0.786458 -0.78894,-0.31557 -0.70834,-0.630807 -0.70834,-1.104167 0,-0.47337 -0.47666,-1.02971 -1.26563,-1.1875 -0.78895,-0.15779 -1.8177,1.510417 -1.8177,1.510417 0,0 -1.3345,0.07874 -2.28125,0.552083 -0.94672,0.47337 -1.34065,0.93443 -1.65625,1.25 -0.31557,0.31558 -1.34667,0.47337 -1.58333,0 -0.23672,-0.47336 -0.70492,-0.469348 -2.125,-0.942708 -1.42012,-0.47337 -1.10999,0.87192 -1.58334,1.1875 -0.47338,0.31558 -0.3955,-0.15779 -1.5,0 -1.1045,0.15779 -0.46568,0.70543 -0.78125,0.46875 -0.31555,-0.23669 -1.26293,0.162047 -2.60416,0.635417 -1.34119,0.473363 -1.34049,0.552083 -2.20834,0.552083 -0.86783,0 -1.26311,1.659742 -2.05208,2.369792 -0.78895,0.71005 -2.05962,1.73668 -3.95313,1.5 -1.89347,-0.23668 -1.72895,1.650453 -2.28124,1.177083 -0.55225,-0.47336 -1.26393,-0.86783 -1.97396,0 -0.71004,0.86785 -1.41615,0.709873 -3.07292,0.552083 -1.65678,-0.15779 -0.47917,-0.861326 -0.47917,-1.729166 0,-0.86784 -1.09785,-2.375235 -2.28125,-3.953125 -1.18345,-1.57788 -5.52761,-0.07066 -7.5,-0.307292 -1.97196,-0.23669 -1.26391,-1.746567 -1.97396,-3.166667 -0.71044,-1.42 -0.5534,-2.753315 -0.9479,-4.015625 -0.39445,-1.26231 -2.44024,-0.784751 -3.22917,-1.494791 -0.78897,-0.71006 -0.95063,-2.055575 -1.7396,-2.765626 -0.78895,-0.710047 -2.75713,-0.319837 -3.625,-0.635417 -0.86778,-0.31558 -1.25772,-1.890625 -2.59895,-1.890625 -1.34095,0 -1.34895,-0.86731 -1.34895,-1.65625 0,-0.78895 -0.94563,-1.34067 -1.1823,-1.65625 -0.23673,-0.31558 -2.2045,-1.1844301 -2.59897,-1.5000001 -0.39441,-0.31558 -0.48265,-1.257925 -1.1927,-2.046875 -0.71003,-0.78894 -1.4159,-1.188677 -1.4948,-2.135417 -0.0789,-0.94673 -1.2654,-0.393342 -1.8177,-1.182292 -0.55201,-0.78891 0.2448,-1.348958 0.2448,-1.348958 0,0 -1.41936,-0.786282 -2.20833,-1.338542 -0.78896,-0.55226 -1.5847,1.028945 -1.97916,1.265625 -0.39445,0.236684 -1.33855,0.07292 -1.33855,0.07292 0,0 -0.47532,-0.473183 -0.86979,-0.552083 -0.39448,-0.0789 -1.42153,1.350488 -2.52605,1.192708 -1.10449,-0.157854 -0.70291,-0.638207 -1.25519,-1.427147 -0.55227,-0.78895 -1.58158,-1.332558 -2.29167,-1.411458 -0.0222,-0.0025 -0.0468,-0.004600001 -0.0677,-0.005200001 z M 478.47891,136.82833 c -0.0655,0.002 -0.12835,0.006 -0.1875,0.0104 -0.94673,0.0789 -1.8114,0.90897 -2.99478,1.69792 -1.18343,0.78895 -3.87045,2.91554 -4.34375,4.09896 -0.4734,1.18339 -0.94402,1.73863 -1.33855,2.36979 -0.39438,0.63114 -2.29652,1.26213 -3.40103,0.55208 -1.10452,-0.71006 -4.25564,-1.65625 -5.28125,-1.65625 -1.02564,0 -1.8986,-0.78257 -2.6875,-1.17708 -0.789,-0.39445 -1.02512,-1.7365 -1.65625,-2.05208 -0.63117,-0.31556 -1.0252,0.46836 -1.65625,1.57291 -0.63122,1.10451 -2.60382,2.76993 -3.70834,3.40104 -1.10451,0.63119 -1.65395,1.88063 -1.89063,2.90624 -0.23667,1.02563 -1.02352,1.74 -1.8125,2.76563 -0.78888,1.02562 -1.97917,3.55729 -1.97917,3.55729 0,0 -1.09978,0.0744 -3.15105,0.46875 -2.05128,0.39451 -0.94388,1.41589 -1.89061,1.49479 -0.94674,0.0789 -2.28242,-0.85937 -3.22917,-0.85937 -0.94672,0 -1.26778,0.78396 -1.58333,1.57291 -0.31559,0.78895 -0.55787,0.71569 -1.03125,1.03125 -0.47335,0.3156 -1.09842,2.3598 -0.625,3.38542 0.4733,1.02563 0.23293,1.5789 -0.16147,1.5 -0.3945,-0.0789 -1.2616,0.001 -2.20833,0.31771 -0.94672,0.3156 -0.78645,0.46875 -0.78645,0.46875 0,0 -1.57644,0.0855 -2.28645,0.40104 -0.71009,0.3156 0.47276,1.41517 -0.47397,1.57292 -0.94675,0.15785 -1.50422,1.18444 -2.13542,1.49999 -0.63108,0.3156 -1.5789,1.18734 -1.5,1.73959 0.0789,0.55228 1.8156,1.33838 1.5,1.89063 -0.31553,0.55227 -1.41615,2.21185 -3.07291,2.92187 -1.65682,0.71006 -2.13292,0.55076 -2.92187,0.15625 -0.7889,-0.39449 -3.47362,0.3085 -4.57813,1.25521 -1.10452,0.94674 -1.02104,1.58119 -2.59897,1.26562 -1.5778,-0.3156 -3.47377,-2.6852 -4.02603,-2.92187 -0.55229,-0.23668 -1.02084,0.47977 -1.02084,0.95312 0,0.4734 0.46875,2.36153 0.46875,2.67708 0,0.31559 0.0751,4.2662 0.39062,4.73959 0.31553,0.47338 2.2132,0.39428 3.31772,0.55208 1.10451,0.15785 3.47803,0.54593 4.66145,1.17708 1.0441,0.55684 1.15791,1.5422 0.63021,2.95834 l 62.42189,0 c 0.46646,-0.31064 0.88785,-0.54212 1.16666,-0.58854 0.94675,-0.15785 2.1248,-3.94461 2.67709,-4.8125 0.55223,-0.86785 1.18153,-0.94715 3.39061,-1.02605 2.209,-0.0789 0.7163,-0.54515 1.50522,-1.2552 0.789,-0.71006 0.70718,0.15104 1.89062,0.15104 1.18336,0 0.9684,-1.15532 2.07291,-1.78645 1.10449,-0.63115 0.84807,-0.42114 1.47917,0.0521 0.63117,0.47338 1.50037,2.60247 2.52605,3.3125 1.02555,0.71002 1.4113,0.0848 1.96353,0.47917 0.55229,0.39451 2.05644,0.23223 2.6875,-0.0833 0.6312,-0.31558 0.47104,-1.41705 0.23439,-2.44271 -0.23674,-1.02562 -1.26319,-1.3465 -2.05209,-2.13542 -0.78893,-0.78895 -1.49696,-1.49015 -1.8125,-1.96353 -0.3156,-0.47335 -1.26198,-2.68505 -1.10416,-3.47397 0.15765,-0.7889 2.53185,-1.66357 3.0052,-1.97917 0.47338,-0.31555 2.04591,-3.15689 2.67708,-3.6302 0.63113,-0.47339 0.9441,-0.7801 1.33855,-1.96354 0.3945,-1.18341 -0.39107,-1.10674 -1.41667,-2.44792 -1.02565,-1.34123 0.6302,-1.03147 0.6302,-2.60937 0,-1.57786 -1.41848,-0.70161 -2.83853,-0.85938 -1.42012,-0.15765 -1.18717,-0.71489 -2.29167,-1.10937 -1.10451,-0.39443 -1.263,0.55575 -2.60416,0.71354 -1.34127,0.15785 -1.97297,-0.79072 -2.60417,-1.42188 -0.6311,-0.63163 -1.49445,-0.56172 -2.59897,-0.64062 -1.10448,-0.0789 -4.1069,2.13713 -4.89583,1.42708 -0.78895,-0.71006 0.63043,-1.34551 2.20833,-2.76562 1.57782,-1.42009 2.76042,-3.86075 2.76042,-4.25521 0,-0.39449 -1.1763,-1.11149 -1.2552,-1.42709 -0.0787,-0.31556 -0.55875,-1.10033 -0.95313,-1.49478 -0.39447,-0.3945 -0.6227,-1.65375 -0.85937,-2.44271 -0.23668,-0.78894 -0.79795,-0.16386 -2.29688,0.0729 -1.49907,0.23668 -0.63452,1.34282 -1.26562,1.97396 -0.63117,0.63116 -1.17923,0.004 -1.4948,-0.39063 -0.3156,-0.39448 0.48133,-1.81306 0.79688,-2.28645 0.3156,-0.47335 2.0467,-1.4157 2.59895,-2.04688 0.55224,-0.63112 0.0759,-1.89874 -0.23958,-2.13542 -0.31557,-0.23667 -2.04512,0.15164 -2.7552,0.0729 -0.71135,-0.0789 -0.4716,-0.85534 -0.70833,-1.80208 -0.20705,-0.82839 -1.5612,-1.21497 -2.53125,-1.24479 -0.0693,-0.002 -0.13759,-0.002 -0.20314,0 z M 360.00496,174.0054 c -0.12706,0.002 -0.22778,0.0117 -0.29688,0.0312 -0.55222,0.15785 -3.15367,2.68595 -4.49478,2.84375 -1.34129,0.15785 -2.5257,0.32292 -3.63022,0.32292 -1.10445,0 -0.78798,1.26162 -0.63022,2.20833 0.15785,0.94674 1.58114,1.65609 1.81772,2.20834 0.23672,0.55228 -1.57717,2.90971 -2.20833,3.61978 -0.29747,0.33478 -0.31075,1.03967 -0.25522,1.85417 l 14.125,0 c -0.36523,-0.54077 -0.85937,-1.41469 -0.85937,-1.92709 0,-0.71005 0.48265,-1.81733 1.1927,-2.92186 0.71004,-1.10447 0.39064,-3.46415 0.39064,-3.9375 0,-0.4734 -1.575,-2.29884 -1.89064,-3.16667 -0.27601,-0.75935 -2.37116,-1.15372 -3.2604,-1.13542 z"
     id="rect4"
     sodipodi:nodetypes="ccccccccccccccccsccscsscscccscccccccscscccscscsscsssscscccsssccccccsscsscsccscccsccscccscsccssscsccccsccscscscccccscscsscscsccscsccccccccccccccccscccscssccssccccccscssccccccccsccccsscsccccscccssscsscscccsccscccccsssssccssccccscscsssscsssccccsscssccssccsccsccccccccccssccccccccsscccccccccscssscsssccsccccscsccccccscccccssccccsscscccccccccccccccccscccccscsccc" />
  <path
     inkscape:connector-curvature="0"
     style="fill:#128807;fill-opacity:1"
     d="m 85.41647,374.24496 c 0.0371,0.30689 0.0354,0.74657 0.21355,1.77084 0.31552,1.81456 1.25825,1.01683 0.9427,1.96353 -0.31556,0.94673 1.49884,4.4281 0.55209,5.92708 -0.94672,1.49897 -0.2349,1.02284 1.42188,1.89062 1.65677,0.86787 -1.01578,0.39535 -0.46355,2.0521 0.55228,1.6568 1.25,1.8125 1.25,1.8125 0,0 -0.78275,1.1806 -0.625,1.89062 0.1578,0.71003 0.38847,0.9477 0.0729,1.5 -0.31557,0.55228 0.40395,2.75988 0.64063,4.41666 0.23667,1.65674 -0.0102,5.83477 1.01562,8.35939 1.02563,2.5246 1.1881,2.05175 1.66145,3.15623 0.47335,1.10453 0.16208,2.14085 0.63543,3.71877 0.47337,1.57788 2.05285,1.41276 1.97395,1.80728 -0.0793,0.39442 -0.0833,0.63062 -0.0833,1.65625 0,1.02558 0.9404,0.47743 1.17708,1.1875 0.23672,0.71002 0.63675,1.97272 1.03125,3.70833 0.39445,1.73569 1.10962,-0.0837 2.6875,1.02084 1.57791,1.10451 0,0.23656 -1.10417,0.55208 -1.1045,0.31558 -0.87156,1.10982 -0.16145,2.13542 0.71007,1.02563 0.78759,0.0804 1.73437,1.97396 0.94673,1.89345 1.02748,3.3056 1.42188,4.01562 0.39455,0.71003 1.50058,0.71547 1.97396,1.58333 0.47339,0.86779 0.32064,1.89492 0.5573,2.52605 0.23669,0.63099 0.14735,0.23049 2.11979,0.625 1.97236,0.39442 0.31933,2.21182 0.16145,2.92187 -0.15784,0.71002 2.4487,1.4269 2.3698,1.97917 -0.0789,0.55223 -0.002,1.1804 0.15625,2.4427 0.15785,1.2623 1.57448,0.69988 1.41666,1.56771 -0.15783,0.86782 -1.02681,1.03247 -0.94791,1.97917 0.0789,0.94672 0.94985,1.57082 1.8177,3.38542 0.86778,1.81453 1.41761,0.71765 0.78646,1.90103 -0.63115,1.18338 1.73959,3.5521 1.73959,3.5521 0,0 -0.71432,0.78625 -0.63542,1.33853 0.0789,0.55224 0.56037,2.20447 0.2448,2.59897 -0.31558,0.3944 0.0751,1.26952 0.39062,3.0052 0.31561,1.73565 0.47318,1.81852 0.55208,3.8698 0.0253,0.65825 0.2349,1.212 0.51042,1.73957 0.583,1.11618 1.45833,2.08995 1.45833,3.53646 0,2.13019 0.47145,1.26895 1.26042,2.53125 0.78898,1.26232 2.6888,7.56888 3.08333,8.51562 0.39442,0.94675 0.94025,2.36736 1.72917,3.15626 0.78895,0.78894 1.89256,0.62849 2.76041,1.33854 0.86785,0.71001 2.84185,4.10091 4.10417,4.96875 1.26227,0.86781 0.87557,0.4823 1.34895,2.29688 0.47335,1.81448 0.62717,1.25545 0.94272,2.83333 0.31558,1.57789 0.39391,0.87082 1.65625,2.36979 1.26228,1.49901 0.39793,0.55313 0.71353,2.05208 0.31553,1.49903 0.70583,1.10368 1.4948,2.76042 0.78893,1.65681 0.23805,2.76023 0.39583,3.3125 0.15784,0.55226 0.8711,1.2668 1.26564,2.21355 0.39448,0.94673 -0.24632,1.26156 -0.0885,2.20833 0.15785,0.94673 0.55555,2.13133 1.26561,3.07812 0.71004,0.94671 1.7396,2.3673 1.7396,3.15625 0,0.78895 0.70312,1.5023 0.70312,1.26563 0,-0.23672 0.55208,-1.03127 0.55208,-1.03127 0,0 0.40012,0.15735 1.03125,1.10417 0.63117,0.94673 0.39204,1.10398 0.78645,1.65627 0.39454,0.55221 0.79304,0.71188 1.1875,1.42186 0.39449,0.71007 -0.39061,0.86459 -0.39061,0.86459 0,0 -0.79829,-0.39564 -1.19272,-0.94792 -0.39448,-0.55218 -0.47532,-0.78412 -0.86978,-1.02083 -0.39449,-0.23664 -1.17709,0.15103 -1.17709,0.15103 0,0 0.15384,1.34052 0.39064,2.20833 0.23666,0.86784 2.4427,3.95209 2.4427,7.26564 0,3.31355 1.18673,5.83548 1.26563,6.15103 0.0789,0.31558 0.55188,0.4775 1.10417,1.1875 0.55226,0.71008 -0.3073,1.96475 -0.3073,2.91147 0,0.94678 1.26313,1.50043 2.05208,2.52603 0.78895,1.02567 0.62117,1.5018 1.01562,2.92188 0.39445,1.42009 1.74195,1.65492 3.63543,3.39062 1.89347,1.73563 3.86457,3.63022 3.86457,3.63022 0,0 1.18211,-0.23904 1.73438,0.23438 0.55225,0.47328 0.081,0.94778 0.31772,1.5 0.23661,0.55227 1.96763,1.89238 3.15103,3.3125 1.18345,1.42007 0.94738,-0.15787 2.60417,0 1.65673,0.15783 1.03105,0.70955 1.58333,1.65623 0.55222,0.94672 2.99343,0.8698 4.72917,0.8698 1.73566,0 1.42516,-0.78846 2.6875,-1.65625 1.2623,-0.86786 1.8114,-1.5795 2.9948,-1.97395 1.1834,-0.3945 1.49456,-0.79 2.04686,-1.5 0.55222,-0.71135 1.18654,-0.62945 1.8177,-0.70833 0.63114,-0.0789 2.75965,-0.2317 2.83855,-1.57293 0.0789,-1.34117 1.10724,-6.32024 0.79167,-7.66145 -0.3156,-1.34119 0.23962,-1.89222 2.36978,-3.86459 2.13013,-1.97236 3.07083,0.0836 4.88543,-0.46875 1.81452,-0.5523 1.74015,-1.10035 2.21354,-1.49478 0.47331,-0.39447 1.02486,-0.004 2.20833,-0.0833 1.18338,-0.0789 4.80848,-0.55132 5.7552,-0.63022 0.94678,-0.0789 0.9442,-1.02957 0.78647,-1.73958 -0.15787,-0.71004 -1.96914,-1.8903 -2.9948,-2.9948 -1.02559,-1.10455 -0.31932,-2.0577 -0.16145,-3.08334 0.15786,-1.02561 3.90648,-5.7853 5.48438,-6.96873 1.57792,-1.18338 0.51948,-2.25808 0.125,-2.4948 -0.39447,-0.23663 -0.0757,-1.41327 1.8177,-2.83333 1.89348,-1.4201 1.48735,-0.48297 3.85417,-0.0885 2.36685,0.3945 5.29691,-0.0748 7.42708,-0.94271 2.13015,-0.86784 -0.0885,-1.65302 -0.0885,-2.52084 0,-0.86788 -0.39297,-2.52918 -0.15623,-4.34375 0.23666,-1.81456 -1.09989,-4.34421 -0.46877,-7.5 0.63118,-3.15571 -1.73957,-6.85686 -1.73957,-7.64583 0,-0.7889 0.71412,-0.95217 1.1875,-1.58333 0.47334,-0.63117 0.002,-1.25564 -0.78646,-2.28125 -0.78892,-1.02559 -0.0833,-1.42709 -0.0833,-1.42709 0,0 0.32132,-0.46705 0.47917,-1.17708 0.15783,-0.71007 0.55037,-3.78315 1.26042,-4.65105 0.71005,-0.86778 1.26083,-1.49982 2.28645,-2.05207 1.02563,-0.55225 1.65221,-1.97135 2.59896,-3.3125 0.94674,-1.34121 0,-1.97916 0,-1.97916 0,0 -0.55265,-0.78262 -1.02603,-1.1771 -0.47338,-0.39445 0,-1.10417 0,-1.10417 0,0 1.7431,-0.63075 2.45312,-1.10417 0.71005,-0.47338 0.86311,-1.26798 3.15105,-5.29166 0.30983,-0.54487 0.53428,-1.09887 0.68228,-1.64583 0.945,-3.49224 -1.04958,-6.82832 -1.39062,-7.5104 -0.39446,-0.78895 -1.89396,-1.17692 -3.15626,-1.72917 -1.26225,-0.55225 -0.79324,-2.0521 -0.0833,-2.0521 0.71005,0 1.7348,1.3482 2.76044,1.4271 1.02563,0.0789 0.55223,-2.61418 0,-3.71877 -0.55229,-1.10455 -0.94272,-1.57411 -0.94272,-2.52083 0,-0.94672 -0.15685,-0.70953 -0.63022,-1.65623 -0.47335,-0.94674 -1.0297,-0.55772 -1.1875,-1.58334 -0.15783,-1.02558 -0.23201,-1.49233 -0.46873,-2.28126 -0.23668,-0.78895 -0.7909,-0.24232 -0.8698,-1.03124 -0.0789,-0.78893 1.26603,-0.5458 2.29167,-1.72916 1.02556,-1.18342 0.15691,-1.18847 0.0781,-2.6875 -0.0789,-1.49899 -0.63815,-3.62067 -1.4271,-5.67189 -0.78895,-2.05128 -0.6211,-1.65943 -1.01562,-3.47395 -0.39283,-1.81456 -0.002,-1.73613 -0.39583,-3.15626 -0.39448,-1.42007 0.54592,-2.92612 1.17708,-3.55729 0.63115,-0.6311 1.57505,-0.78781 1.89064,-1.18228 0.31491,-0.39445 -0.15057,-0.39182 0.3229,-1.33855 0.47338,-0.94677 0.54978,-0.71763 0.78646,-1.90105 0.23667,-1.18337 0.47365,-0.86345 1.57814,-2.04687 1.10451,-1.18346 3.94366,-2.28723 5.4427,-2.20833 1.49896,0.0789 2.2855,1.65822 2.91666,2.52603 0.63114,0.86789 3.39642,-0.86946 3.8698,-1.97395 0.47334,-1.10455 0.3903,-1.10906 1.49479,-2.21355 1.10456,-1.10458 0.47898,-0.473 1.03125,-1.10416 0.55226,-0.63115 -0.005,-1.5727 1.02083,-2.125 1.02563,-0.55222 0.79225,-0.15769 1.26563,-2.68229 0.47337,-2.5246 -0.55436,-1.7361 1.8125,-3.15625 2.36682,-1.42005 2.13429,0.2384 3.3177,1.42187 1.1834,1.18342 1.41672,-0.23437 3.54687,-0.23437 2.13015,0 2.84093,-0.8733 4.73438,-1.58333 1.89349,-0.71007 0.24367,-0.78647 1.42709,-0.78647 1.18343,0 1.09936,0.0783 2.125,-0.47395 1.02561,-0.55223 1.33853,-0.47453 1.33853,-0.94791 0,-0.47332 0.2325,-0.63445 1.4948,-1.26564 1.26233,-0.63111 0.71353,-1.57218 0.71353,-3.78123 0,-2.20907 -0.24015,-1.89472 -0.71353,-3.07813 -0.47335,-1.18349 -0.23668,-1.10379 0,-2.20834 0.2367,-1.10451 1.97708,-1.42303 3.79167,-2.3698 1.81456,-0.94668 1.82103,-1.65145 3.08333,-2.67706 1.2623,-1.02557 1.41318,-1.26195 2.83333,-1.10417 1.42004,0.15783 0.55539,-0.55195 1.8177,-1.10417 1.26232,-0.55223 1.34202,-0.0811 2.0521,-0.31771 0.71002,-0.23669 3.93864,-3.78927 4.8854,-4.57812 0.94674,-0.78902 0.24327,-1.33938 0.40105,-3.39063 0.11577,-1.50524 0.48482,-2.15947 1.04679,-2.71361 l -197.31773,0 z"
     id="rect8" />
</svg>
